<svg xmlns="http://www.w3.org/2000/svg" viewBox="0 0 384 512">
  <defs>
    <linearGradient id="positive-gradient" x1="0" x2="0" y1="0" y2="1">
      <stop offset="30%" stop-color="#38c000" />
      <stop offset="100%" stop-color="#2c9600" />
    </linearGradient>
  </defs>
  <path fill="url(#positive-gradient)" d="M192 0C86.4 0 0 86.4 0 192c0 76.8 25.6 99.2 172.8 310.4 9.6 12.8 28.8 12.8 38.4 0C358.4 291.2 384 268.8 384 192 384 86.4 297.6 0 192 0zm112 200c0 8.84-7.16 16-16 16h-72v72c0 8.84-7.16 16-16 16h-16c-8.84 0-16-7.16-16-16v-72H96c-8.84 0-16-7.16-16-16v-16c0-8.84 7.16-16 16-16h72V96c0-8.84 7.16-16 16-16h16c8.84 0 16 7.16 16 16v72h72c8.84 0 16 7.16 16 16v16z"/>
</svg>
